<?xml version="1.0" encoding="UTF-8" standalone="no"?>
<svg
   width="156"
   height="36"
   viewBox="0 0 156 36"
   fill="none"
   version="1.1"
   id="svg16"
   sodipodi:docname="logo.svg"
   inkscape:version="1.3.2 (091e20e, 2023-11-25, custom)"
   xmlns:inkscape="http://www.inkscape.org/namespaces/inkscape"
   xmlns:sodipodi="http://sodipodi.sourceforge.net/DTD/sodipodi-0.dtd"
   xmlns="http://www.w3.org/2000/svg"
   xmlns:svg="http://www.w3.org/2000/svg">
  <defs
     id="defs16" />
  <sodipodi:namedview
     id="namedview16"
     pagecolor="#505050"
     bordercolor="#eeeeee"
     borderopacity="1"
     inkscape:showpageshadow="0"
     inkscape:pageopacity="0"
     inkscape:pagecheckerboard="0"
     inkscape:deskcolor="#505050"
     inkscape:zoom="15.057748"
     inkscape:cx="122.29584"
     inkscape:cy="6.1430168"
     inkscape:window-width="2560"
     inkscape:window-height="1369"
     inkscape:window-x="1912"
     inkscape:window-y="-8"
     inkscape:window-maximized="1"
     inkscape:current-layer="svg16" />
  <path
     d="M35.7836 14.3749V21.3775C35.7836 22.4003 35.3046 23.3509 34.5159 23.887C33.8529 24.3377 32.9602 24.9119 31.9053 25.5103V14.3749H35.7836Z"
     fill="#FF4667"
     id="path10" />
  <path
     d="M31.7074 14.3749V25.5594C28.8643 27.1828 24.8495 28.9829 21.0386 28.9829C15.8155 28.9829 10.2095 25.6001 7.75922 23.9295C6.97051 23.3913 6.49155 22.4368 6.49155 21.4099V14.3749H31.7074Z"
     fill="#FF4667"
     id="path11" />
  <path
     d="M35.5903 14.2289V21.0681C35.5903 22.0703 35.1112 23.0014 34.3227 23.526C31.8727 25.1561 26.2669 28.4567 21.0433 28.4567C15.8198 28.4567 10.2141 25.1561 7.76397 23.526C6.97546 23.0014 6.4964 22.0703 6.4964 21.0681V14.2289H35.5903ZM36.382 13.4339H5.70482V21.0681C5.70482 22.3464 6.31115 23.5131 7.32677 24.1888C8.6176 25.0477 10.6581 26.2901 13.0484 27.332C15.9711 28.6059 18.6609 29.2518 21.0433 29.2518C23.4258 29.2518 26.1156 28.6059 29.0383 27.332C31.4285 26.2901 33.4691 25.0476 34.7599 24.1888C35.7755 23.5131 36.382 22.3464 36.382 21.0681V13.4339Z"
     fill="#FF4667"
     id="path12" />
  <path
     d="M31.3406 27.1815C30.5995 27.2715 29.9168 27.6307 29.4213 28.1915C28.9258 28.7522 28.6517 29.4757 28.651 30.2254V32.9303C28.651 34.027 29.2334 35.0404 30.1793 35.5887C31.1249 36.1371 32.2901 36.1371 33.2357 35.5887C34.1815 35.0404 34.7641 34.027 34.7641 32.9303V30.2254C34.7633 29.4757 34.4892 28.7522 33.9938 28.1915C33.4983 27.6307 32.8156 27.2715 32.0745 27.1815"
     fill="#392C7D"
     id="path13" />
  <path
     d="M34.0302 30.5865H29.3847V30.2586C29.3847 28.9702 30.4247 27.9259 31.7074 27.9259C32.9902 27.9259 34.0301 28.9703 34.0301 30.2586L34.0302 30.5865Z"
     fill="white"
     id="path14" />
  <path
     d="M39.5253 13.3221L21.9318 21.7341C21.3393 22.0173 20.6512 22.0166 20.0593 21.7321L2.36969 13.2289C0.729737 12.4406 0.721029 10.099 2.35505 9.29834L20.0351 0.63575C20.6405 0.339086 21.3487 0.341173 21.9525 0.641415L39.5556 9.39534C41.1814 10.2038 41.1634 12.539 39.5253 13.3221Z"
     fill="#392C7D"
     id="path15" />
  <path
     d="M20.9881 0.780971C21.2306 0.780971 21.4729 0.835443 21.6959 0.944389L39.7158 9.74651C40.9089 10.3293 40.8958 12.0126 39.6936 12.5772L21.6808 21.0369C21.464 21.1387 21.2296 21.1897 20.9952 21.1897C20.7597 21.1897 20.5244 21.1383 20.3067 21.0355L2.19806 12.4854C0.994518 11.9171 0.988185 10.2292 2.18728 9.65202L20.2887 0.940289C20.5094 0.834077 20.7488 0.780971 20.9881 0.780971ZM20.9881 0C20.6274 0 20.2656 0.08249 19.9416 0.238391L1.84023 8.95012C1.01005 9.34968 0.496554 10.1638 0.500017 11.0749C0.503481 11.986 1.02312 12.7964 1.85626 13.1898L19.9648 21.7399C20.2845 21.8908 20.6408 21.9706 20.9951 21.9706C21.3478 21.9706 21.7026 21.8915 22.021 21.7419L40.0338 13.2823C40.866 12.8914 41.3874 12.0839 41.3945 11.1746C41.4017 10.2655 40.893 9.45004 40.067 9.04657L22.0472 0.244541C21.7197 0.0845401 21.3535 0 20.9881 0Z"
     fill="#392C7D"
     id="path16" />
  <text
     xml:space="preserve"
     style="font-style:normal;font-variant:normal;font-weight:normal;font-stretch:normal;font-size:10.9826px;font-family:Bahnschrift;-inkscape-font-specification:'Bahnschrift, Normal';font-variant-ligatures:normal;font-variant-caps:normal;font-variant-numeric:normal;font-variant-east-asian:normal;fill:#ff4667;fill-opacity:0.972549;stroke-width:0.996889;paint-order:stroke fill markers"
     x="116.96471"
     y="9.8200159"
     id="text16"
     transform="scale(1.0482392,0.95398076)"><tspan
       sodipodi:role="line"
       id="tspan16"
       x="116.96471"
       y="9.8200159"
       style="stroke-width:0.996889">IELTS</tspan></text>
  <text
     xml:space="preserve"
     style="font-style:normal;font-variant:normal;font-weight:normal;font-stretch:normal;font-size:32.9564px;font-family:Bahnschrift;-inkscape-font-specification:'Bahnschrift, Normal';font-variant-ligatures:normal;font-variant-caps:normal;font-variant-numeric:normal;font-variant-east-asian:normal;fill:#392c7d;fill-opacity:1;stroke-width:2.99143;paint-order:stroke fill markers"
     x="45.44944"
     y="35.898712"
     id="text17"
     transform="scale(1.0965276,0.91196976)"><tspan
       sodipodi:role="line"
       id="tspan17"
       x="45.44944"
       y="35.898712"
       style="fill:#392c7d;fill-opacity:1;stroke-width:2.99143">MOCK</tspan></text>
</svg>
